<?xml version="1.0" standalone="no"?><!DOCTYPE svg PUBLIC "-//W3C//DTD SVG 1.1//EN" "http://www.w3.org/Graphics/SVG/1.1/DTD/svg11.dtd"><svg xmlns:xlink="http://www.w3.org/1999/xlink" version="1.1" class="highcharts-root" style="font-family:&quot;Lucida Grande&quot;, &quot;Lucida Sans Unicode&quot;, Arial, Helvetica, sans-serif;font-size:12px;" xmlns="http://www.w3.org/2000/svg" width="1920" height="1080" viewBox="0 0 1920 1080"><desc>Created with Highcharts 9.3.2</desc><defs><clipPath id="highcharts-e230nc9-1544-"><rect x="0" y="0" width="1839" height="972" fill="none"></rect></clipPath><clipPath id="highcharts-e230nc9-2895-"><rect x="0" y="0" width="1839" height="972" fill="none"></rect></clipPath></defs><rect fill="#ffffff" class="highcharts-background" x="0" y="0" width="1920" height="1080" rx="0" ry="0"></rect><rect fill="none" class="highcharts-plot-background" x="71" y="10" width="1839" height="972"></rect><g class="highcharts-grid highcharts-xaxis-grid" data-z-index="1"><path fill="none" stroke-dasharray="none" data-z-index="1" class="highcharts-grid-line" d="M 87.5 10 L 87.5 982" opacity="1"></path><path fill="none" stroke-dasharray="none" data-z-index="1" class="highcharts-grid-line" d="M 154.5 10 L 154.5 982" opacity="1"></path><path fill="none" stroke-dasharray="none" data-z-index="1" class="highcharts-grid-line" d="M 220.5 10 L 220.5 982" opacity="1"></path><path fill="none" stroke-dasharray="none" data-z-index="1" class="highcharts-grid-line" d="M 287.5 10 L 287.5 982" opacity="1"></path><path fill="none" stroke-dasharray="none" data-z-index="1" class="highcharts-grid-line" d="M 354.5 10 L 354.5 982" opacity="1"></path><path fill="none" stroke-dasharray="none" data-z-index="1" class="highcharts-grid-line" d="M 421.5 10 L 421.5 982" opacity="1"></path><path fill="none" stroke-dasharray="none" data-z-index="1" class="highcharts-grid-line" d="M 488.5 10 L 488.5 982" opacity="1"></path><path fill="none" stroke-dasharray="none" data-z-index="1" class="highcharts-grid-line" d="M 554.5 10 L 554.5 982" opacity="1"></path><path fill="none" stroke-dasharray="none" data-z-index="1" class="highcharts-grid-line" d="M 621.5 10 L 621.5 982" opacity="1"></path><path fill="none" stroke-dasharray="none" data-z-index="1" class="highcharts-grid-line" d="M 688.5 10 L 688.5 982" opacity="1"></path><path fill="none" stroke-dasharray="none" data-z-index="1" class="highcharts-grid-line" d="M 755.5 10 L 755.5 982" opacity="1"></path><path fill="none" stroke-dasharray="none" data-z-index="1" class="highcharts-grid-line" d="M 822.5 10 L 822.5 982" opacity="1"></path><path fill="none" stroke-dasharray="none" data-z-index="1" class="highcharts-grid-line" d="M 889.5 10 L 889.5 982" opacity="1"></path><path fill="none" stroke-dasharray="none" data-z-index="1" class="highcharts-grid-line" d="M 955.5 10 L 955.5 982" opacity="1"></path><path fill="none" stroke-dasharray="none" data-z-index="1" class="highcharts-grid-line" d="M 1022.5 10 L 1022.5 982" opacity="1"></path><path fill="none" stroke-dasharray="none" data-z-index="1" class="highcharts-grid-line" d="M 1089.5 10 L 1089.5 982" opacity="1"></path><path fill="none" stroke-dasharray="none" data-z-index="1" class="highcharts-grid-line" d="M 1156.5 10 L 1156.5 982" opacity="1"></path><path fill="none" stroke-dasharray="none" data-z-index="1" class="highcharts-grid-line" d="M 1223.5 10 L 1223.5 982" opacity="1"></path><path fill="none" stroke-dasharray="none" data-z-index="1" class="highcharts-grid-line" d="M 1290.5 10 L 1290.5 982" opacity="1"></path><path fill="none" stroke-dasharray="none" data-z-index="1" class="highcharts-grid-line" d="M 1356.5 10 L 1356.5 982" opacity="1"></path><path fill="none" stroke-dasharray="none" data-z-index="1" class="highcharts-grid-line" d="M 1423.5 10 L 1423.5 982" opacity="1"></path><path fill="none" stroke-dasharray="none" data-z-index="1" class="highcharts-grid-line" d="M 1490.5 10 L 1490.5 982" opacity="1"></path><path fill="none" stroke-dasharray="none" data-z-index="1" class="highcharts-grid-line" d="M 1557.5 10 L 1557.5 982" opacity="1"></path><path fill="none" stroke-dasharray="none" data-z-index="1" class="highcharts-grid-line" d="M 1624.5 10 L 1624.5 982" opacity="1"></path><path fill="none" stroke-dasharray="none" data-z-index="1" class="highcharts-grid-line" d="M 1690.5 10 L 1690.5 982" opacity="1"></path><path fill="none" stroke-dasharray="none" data-z-index="1" class="highcharts-grid-line" d="M 1757.5 10 L 1757.5 982" opacity="1"></path><path fill="none" stroke-dasharray="none" data-z-index="1" class="highcharts-grid-line" d="M 1824.5 10 L 1824.5 982" opacity="1"></path><path fill="none" stroke-dasharray="none" data-z-index="1" class="highcharts-grid-line" d="M 1891.5 10 L 1891.5 982" opacity="1"></path></g><g class="highcharts-grid highcharts-yaxis-grid" data-z-index="1"><path fill="none" stroke="#e6e6e6" stroke-width="1" stroke-dasharray="none" data-z-index="1" class="highcharts-grid-line" d="M 71 982.5 L 1910 982.5" opacity="1"></path><path fill="none" stroke="#e6e6e6" stroke-width="1" stroke-dasharray="none" data-z-index="1" class="highcharts-grid-line" d="M 71 925.5 L 1910 925.5" opacity="1"></path><path fill="none" stroke="#e6e6e6" stroke-width="1" stroke-dasharray="none" data-z-index="1" class="highcharts-grid-line" d="M 71 868.5 L 1910 868.5" opacity="1"></path><path fill="none" stroke="#e6e6e6" stroke-width="1" stroke-dasharray="none" data-z-index="1" class="highcharts-grid-line" d="M 71 810.5 L 1910 810.5" opacity="1"></path><path fill="none" stroke="#e6e6e6" stroke-width="1" stroke-dasharray="none" data-z-index="1" class="highcharts-grid-line" d="M 71 753.5 L 1910 753.5" opacity="1"></path><path fill="none" stroke="#e6e6e6" stroke-width="1" stroke-dasharray="none" data-z-index="1" class="highcharts-grid-line" d="M 71 696.5 L 1910 696.5" opacity="1"></path><path fill="none" stroke="#e6e6e6" stroke-width="1" stroke-dasharray="none" data-z-index="1" class="highcharts-grid-line" d="M 71 639.5 L 1910 639.5" opacity="1"></path><path fill="none" stroke="#e6e6e6" stroke-width="1" stroke-dasharray="none" data-z-index="1" class="highcharts-grid-line" d="M 71 582.5 L 1910 582.5" opacity="1"></path><path fill="none" stroke="#e6e6e6" stroke-width="1" stroke-dasharray="none" data-z-index="1" class="highcharts-grid-line" d="M 71 525.5 L 1910 525.5" opacity="1"></path><path fill="none" stroke="#e6e6e6" stroke-width="1" stroke-dasharray="none" data-z-index="1" class="highcharts-grid-line" d="M 71 467.5 L 1910 467.5" opacity="1"></path><path fill="none" stroke="#e6e6e6" stroke-width="1" stroke-dasharray="none" data-z-index="1" class="highcharts-grid-line" d="M 71 410.5 L 1910 410.5" opacity="1"></path><path fill="none" stroke="#e6e6e6" stroke-width="1" stroke-dasharray="none" data-z-index="1" class="highcharts-grid-line" d="M 71 353.5 L 1910 353.5" opacity="1"></path><path fill="none" stroke="#e6e6e6" stroke-width="1" stroke-dasharray="none" data-z-index="1" class="highcharts-grid-line" d="M 71 296.5 L 1910 296.5" opacity="1"></path><path fill="none" stroke="#e6e6e6" stroke-width="1" stroke-dasharray="none" data-z-index="1" class="highcharts-grid-line" d="M 71 239.5 L 1910 239.5" opacity="1"></path><path fill="none" stroke="#e6e6e6" stroke-width="1" stroke-dasharray="none" data-z-index="1" class="highcharts-grid-line" d="M 71 182.5 L 1910 182.5" opacity="1"></path><path fill="none" stroke="#e6e6e6" stroke-width="1" stroke-dasharray="none" data-z-index="1" class="highcharts-grid-line" d="M 71 124.5 L 1910 124.5" opacity="1"></path><path fill="none" stroke="#e6e6e6" stroke-width="1" stroke-dasharray="none" data-z-index="1" class="highcharts-grid-line" d="M 71 67.5 L 1910 67.5" opacity="1"></path><path fill="none" stroke="#e6e6e6" stroke-width="1" stroke-dasharray="none" data-z-index="1" class="highcharts-grid-line" d="M 71 9.5 L 1910 9.5" opacity="1"></path></g><rect fill="none" class="highcharts-plot-border" data-z-index="1" x="71" y="10" width="1839" height="972"></rect><g class="highcharts-axis highcharts-xaxis" data-z-index="2"><path fill="none" class="highcharts-tick" stroke="#ccd6eb" stroke-width="1" d="M 87.5 982 L 87.5 992" opacity="1"></path><path fill="none" class="highcharts-tick" stroke="#ccd6eb" stroke-width="1" d="M 154.5 982 L 154.5 992" opacity="1"></path><path fill="none" class="highcharts-tick" stroke="#ccd6eb" stroke-width="1" d="M 220.5 982 L 220.5 992" opacity="1"></path><path fill="none" class="highcharts-tick" stroke="#ccd6eb" stroke-width="1" d="M 287.5 982 L 287.5 992" opacity="1"></path><path fill="none" class="highcharts-tick" stroke="#ccd6eb" stroke-width="1" d="M 354.5 982 L 354.5 992" opacity="1"></path><path fill="none" class="highcharts-tick" stroke="#ccd6eb" stroke-width="1" d="M 421.5 982 L 421.5 992" opacity="1"></path><path fill="none" class="highcharts-tick" stroke="#ccd6eb" stroke-width="1" d="M 488.5 982 L 488.5 992" opacity="1"></path><path fill="none" class="highcharts-tick" stroke="#ccd6eb" stroke-width="1" d="M 554.5 982 L 554.5 992" opacity="1"></path><path fill="none" class="highcharts-tick" stroke="#ccd6eb" stroke-width="1" d="M 621.5 982 L 621.5 992" opacity="1"></path><path fill="none" class="highcharts-tick" stroke="#ccd6eb" stroke-width="1" d="M 688.5 982 L 688.5 992" opacity="1"></path><path fill="none" class="highcharts-tick" stroke="#ccd6eb" stroke-width="1" d="M 755.5 982 L 755.5 992" opacity="1"></path><path fill="none" class="highcharts-tick" stroke="#ccd6eb" stroke-width="1" d="M 822.5 982 L 822.5 992" opacity="1"></path><path fill="none" class="highcharts-tick" stroke="#ccd6eb" stroke-width="1" d="M 889.5 982 L 889.5 992" opacity="1"></path><path fill="none" class="highcharts-tick" stroke="#ccd6eb" stroke-width="1" d="M 955.5 982 L 955.5 992" opacity="1"></path><path fill="none" class="highcharts-tick" stroke="#ccd6eb" stroke-width="1" d="M 1022.5 982 L 1022.5 992" opacity="1"></path><path fill="none" class="highcharts-tick" stroke="#ccd6eb" stroke-width="1" d="M 1089.5 982 L 1089.5 992" opacity="1"></path><path fill="none" class="highcharts-tick" stroke="#ccd6eb" stroke-width="1" d="M 1156.5 982 L 1156.5 992" opacity="1"></path><path fill="none" class="highcharts-tick" stroke="#ccd6eb" stroke-width="1" d="M 1223.5 982 L 1223.5 992" opacity="1"></path><path fill="none" class="highcharts-tick" stroke="#ccd6eb" stroke-width="1" d="M 1290.5 982 L 1290.5 992" opacity="1"></path><path fill="none" class="highcharts-tick" stroke="#ccd6eb" stroke-width="1" d="M 1356.5 982 L 1356.5 992" opacity="1"></path><path fill="none" class="highcharts-tick" stroke="#ccd6eb" stroke-width="1" d="M 1423.5 982 L 1423.5 992" opacity="1"></path><path fill="none" class="highcharts-tick" stroke="#ccd6eb" stroke-width="1" d="M 1490.5 982 L 1490.5 992" opacity="1"></path><path fill="none" class="highcharts-tick" stroke="#ccd6eb" stroke-width="1" d="M 1557.5 982 L 1557.5 992" opacity="1"></path><path fill="none" class="highcharts-tick" stroke="#ccd6eb" stroke-width="1" d="M 1624.5 982 L 1624.5 992" opacity="1"></path><path fill="none" class="highcharts-tick" stroke="#ccd6eb" stroke-width="1" d="M 1690.5 982 L 1690.5 992" opacity="1"></path><path fill="none" class="highcharts-tick" stroke="#ccd6eb" stroke-width="1" d="M 1757.5 982 L 1757.5 992" opacity="1"></path><path fill="none" class="highcharts-tick" stroke="#ccd6eb" stroke-width="1" d="M 1824.5 982 L 1824.5 992" opacity="1"></path><path fill="none" class="highcharts-tick" stroke="#ccd6eb" stroke-width="1" d="M 1891.5 982 L 1891.5 992" opacity="1"></path><text x="990.5" data-z-index="7" text-anchor="middle" transform="translate(0,0)" class="highcharts-axis-title" style="color:#666666;fill:#666666;" y="1021">Position</text><path fill="none" class="highcharts-axis-line" stroke="#ccd6eb" stroke-width="1" data-z-index="7" d="M 71 982.5 L 1910 982.5"></path></g><g class="highcharts-axis highcharts-yaxis" data-z-index="2"><text x="26.200000762939453" data-z-index="7" text-anchor="middle" transform="translate(0,0) rotate(270 26.200000762939453 496)" class="highcharts-axis-title" style="color:#666666;fill:#666666;" y="496">Values</text><path fill="none" class="highcharts-axis-line" data-z-index="7" d="M 71 10 L 71 982"></path></g><g class="highcharts-series-group" data-z-index="3"><g class="highcharts-series highcharts-series-0 highcharts-line-series highcharts-color-0" data-z-index="0.1" opacity="1" transform="translate(71,10) scale(1 1)" clip-path="url(#highcharts-e230nc9-2895-)"><path fill="none" d="M 18.029411764706 915.1789763549256 L 19.365913748746 913.2087094009381 L 20.702415732787 943.1780678176552 L 22.038917716827 943.5923805758978 L 23.375419700868 941.6239578445994 L 24.711921684908 944.7950695040056 L 26.048423668949 972 L 27.384925652989 972 L 28.72142763703 972 L 30.05792962107 972 L 31.394431605111 972 L 32.730933589151 972 L 34.067435573191 972 L 35.403937557232 972 L 36.740439541272 951.6345197727899 L 38.076941525313 949.9930079559601 L 39.413443509353 946.8928438700608 L 40.749945493394 451.534862221289 L 42.086447477434 446.4479274527504 L 43.422949461475 294.0768787221059 L 44.759451445515 255.80743471961466 L 46.095953429556 252.6039936278097 L 47.432455413596 247.71655908816672 L 48.768957397637 166.14194699154166 L 50.105459381677 162.68621698084473 L 51.441961365718 100.06992280988334 L 52.778463349758 563.6244920414866 L 54.114965333798 544.7617147743017 L 55.451467317839 746.4022548146557 L 56.787969301879 768.6147484956249 L 58.12447128592 782.2067051490818 L 59.46097326996 770.7187452073824 L 60.797475254001 899.6854210954608 L 62.133977238041 896.506121206291 L 63.470479222082 972 L 64.806981206122 972 L 66.143483190163 972 L 67.479985174203 972 L 68.816487158244 972 L 70.152989142284 972 L 71.489491126325 972 L 72.825993110365 972 L 74.162495094405 972 L 75.498997078446 972 L 76.835499062486 972 L 78.172001046527 972 L 79.508503030567 972 L 80.845005014608 972 L 82.181506998648 972 L 83.518008982689 972 L 84.854510966729 972 L 86.19101295077 972 L 87.52751493481 972 L 88.864016918851 972 L 90.200518902891 972 L 91.537020886931 972 L 92.873522870972 972 L 94.210024855012 972 L 95.546526839053 972 L 96.883028823093 972 L 98.219530807134 972 L 99.556032791174 972 L 100.89253477521 972 L 102.22903675926 972 L 103.5655387433 972 L 104.90204072734 972 L 106.23854271138 972 L 107.57504469542 972 L 108.91154667946 972 L 110.2480486635 972 L 111.58455064754 972 L 112.92105263158 972 L 114.25755461562 972 L 115.59405659966 972 L 116.9305585837 972 L 118.26706056774 914.7531930094881 L 119.60356255178 916.321840969582 L 120.94006453582 913.7219400039185 L 122.27656651986 916.657333968233 L 123.6130685039 910.3988350668288 L 124.94957048794 885.5573723546271 L 126.28607247198 889.4858626121884 L 127.62257445602 828.9069004700029 L 128.95907644006 842.425785300125 L 130.29557842411 890.731969297175 L 131.63208040815 895.384588151756 L 132.96858239219 894.202842849513 L 134.30508437623 891.3199558735187 L 135.64158636027 833.8830696648718 L 136.97808834431 834.8852114964748 L 138.31459032835 834.7618693912391 L 139.65109231239 895.6827752732454 L 140.98759429643 887.5720217577675 L 142.32409628047 893.0986334631834 L 143.66059826451 892.3187303320552 L 144.99710024855 890.5241022118262 L 146.33360223259 889.9357627303503 L 147.67010421663 911.737261069982 L 149.00660620067 938.0535301396834 L 150.34310818471 945.3389320971985 L 151.67961016875 943.7649393470734 L 153.01611215279 942.3786599529785 L 154.35261413683 942.003459790258 L 155.68911612087 946.4349606761583 L 157.02561810491 943.7588538862369 L 158.36212008895 946.7863293187266 L 159.698622073 972 L 161.03512405704 972 L 162.37162604108 972 L 163.70812802512 972 L 165.04463000916 972 L 166.3811319932 972 L 167.71763397724 972 L 169.05413596128 972 L 170.39063794532 972 L 171.72713992936 972 L 173.0636419134 972 L 174.40014389744 831.7032020507941 L 175.73664588148 825.5707710176508 L 177.07314786552 826.5290666923113 L 178.40964984956 834.4560596054743 L 179.7461518336 834.712017258717 L 181.08265381764 830.5231663287017 L 182.41915580168 832.7989017644161 L 183.75565778572 800.2448764956173 L 185.09215976976 802.65146752052 L 186.4286617538 944.1856365639675 L 187.76516373785 944.095574792885 L 189.10166572189 895.4777153601468 L 190.43816770593 893.4595085667466 L 191.77466968997 820.9246993912169 L 193.11117167401 829.7079280784174 L 194.44767365805 830.0249237209048 L 195.78417564209 851.0906739109304 L 197.12067762613 822.8938639240087 L 198.45717961017 826.2294121973752 L 199.79368159421 822.0868130295025 L 201.13018357825 872.047090184413 L 202.46668556229 873.1955694336934 L 203.80318754633 946.1427481111772 L 205.13968953037 942.7444887867757 L 206.47619151441 942.347991504237 L 207.81269349845 916.4056811730582 L 209.14919548249 946.1350747061067 L 210.48569746653 943.826238158852 L 211.82219945057 912.9752654957824 L 213.15870143461 916.1748212578281 L 214.49520341865 920.7759113887973 L 215.83170540269 924.3442406254238 L 217.16820738674 972 L 218.50470937078 972 L 219.84121135482 972 L 221.17771333886 972 L 222.5142153229 972 L 223.85071730694 972 L 225.18721929098 972 L 226.52372127502 972 L 227.86022325906 972 L 229.1967252431 826.1359991086078 L 230.53322722714 942.7688937620795 L 231.86972921118 945.5435126322533 L 233.20623119522 939.3638049561414 L 234.54273317926 912.0904816128843 L 235.8792351633 918.4513104669835 L 237.21573714734 916.3171459956035 L 238.55223913138 914.7575347612103 L 239.88874111542 917.3576570535645 L 241.22524309946 943.3309325122588 L 242.5617450835 941.9141535019728 L 243.89824706754 946.5043766198437 L 245.23474905159 942.4905417163499 L 246.57125103563 972 L 247.90775301967 972 L 249.24425500371 972 L 250.58075698775 972 L 251.91725897179 972 L 253.25376095583 972 L 254.59026293987 972 L 255.92676492391 972 L 257.26326690795 972 L 258.59976889199 972 L 259.93627087603 972 L 261.27277286007 972 L 262.60927484411 920.5061649167822 L 263.94577682815 920.9098083817582 L 265.28227881219 919.5673804796218 L 266.61878079623 763.2834755170036 L 267.95528278027 766.2966621068238 L 269.29178476431 775.3696623186102 L 270.62828674835 764.6547811267161 L 271.96478873239 744.4263281062351 L 273.30129071643 746.3097255299394 L 274.63779270048 734.496131961139 L 275.97429468452 709.4405031391641 L 277.31079666856 702.8644455979319 L 278.6472986526 863.1110808223202 L 279.98380063664 853.3704011673892 L 281.32030262068 857.5525041409435 L 282.65680460472 853.7618955893574 L 283.99330658876 886.4053991885216 L 285.3298085728 867.4035222655588 L 286.66631055684 913.2449568686986 L 288.00281254088 945.4164146635403 L 289.33931452492 851.5538898197452 L 290.67581650896 819.9369225134558 L 292.012318493 788.0390826661262 L 293.34882047704 791.0998287501378 L 294.68532246108 789.8892320848073 L 296.02182444512 791.607039057087 L 297.35832642916 813.0098563112919 L 298.6948284132 814.313222934848 L 300.03133039724 814.4699917093019 L 301.36783238128 912.3108230790788 L 302.70433436533 972 L 304.04083634937 972 L 305.37733833341 972 L 306.71384031745 972 L 308.05034230149 972 L 309.38684428553 972 L 310.72334626957 972 L 312.05984825361 972 L 313.39635023765 972 L 314.73285222169 675.1774204748519 L 316.06935420573 702.704525577337 L 317.40585618977 794.0579640084626 L 318.74235817381 792.8846969305481 L 320.07886015785 825.2071415455439 L 321.41536214189 821.5459231472134 L 322.75186412593 820.9567678222829 L 324.08836610997 830.8550646817856 L 325.42486809401 972 L 326.76137007805 972 L 328.09787206209 972 L 329.43437404613 972 L 330.77087603017 972 L 332.10737801422 948.254215338523 L 333.44387999826 914.2619123175941 L 334.7803819823 916.559969842282 L 336.11688396634 911.3315746218051 L 337.45338595038 915.2771993623977 L 338.78988793442 918.2740551303207 L 340.12638991846 916.5631796943795 L 341.4628919025 913.8264063184278 L 342.79939388654 917.5456516333761 L 344.13589587058 943.37476099311 L 345.47239785462 972 L 346.80889983866 972 L 348.1454018227 972 L 349.48190380674 972 L 350.81840579078 972 L 352.15490777482 972 L 353.49140975886 972 L 354.8279117429 972 L 356.16441372694 972 L 357.50091571098 972 L 358.83741769502 972 L 360.17391967907 944.406867425555 L 361.51042166311 942.441266040923 L 362.84692364715 939.7288841974922 L 364.18342563119 944.0679655041005 L 365.51992761523 940.7028731347411 L 366.85642959927 942.4051772951606 L 368.19293158331 941.744529240775 L 369.52943356735 941.1847393822895 L 370.86593555139 946.0974950813574 L 372.20243753543 972 L 373.53893951947 972 L 374.87544150351 972 L 376.21194348755 972 L 377.54844547159 972 L 378.88494745563 972 L 380.22144943967 972 L 381.55795142371 972 L 382.89445340775 972 L 384.23095539179 972 L 385.56745737583 972 L 386.90395935987 972 L 388.24046134391 944.6475171375414 L 389.57696332796 951.4835672370416 L 390.913465312 945.1096519120413 L 392.24996729604 944.9412266779992 L 393.58646928008 939.3690288428547 L 394.92297126412 942.5101857115116 L 396.25947324816 942.5908340368727 L 397.5959752322 939.4127494121959 L 398.93247721624 941.3985395493248 L 400.26897920028 972 L 401.60548118432 972 L 402.94198316836 972 L 404.2784851524 972 L 405.61498713644 972 L 406.95148912048 972 L 408.28799110452 972 L 409.62449308856 972 L 410.9609950726 913.2720181446402 L 412.29749705664 915.3419193526357 L 413.63399904068 916.1066143118734 L 414.97050102472 868.6133827549002 L 416.30700300876 863.5358434921261 L 417.64350499281 858.8500447510189 L 418.98000697685 862.5748298369427 L 420.31650896089 860.3017159401171 L 421.65301094493 855.6171682225955 L 422.98951292897 917.601558212053 L 424.32601491301 917.4808962023985 L 425.66251689705 895.9626335100232 L 426.99901888109 944.4796428646342 L 428.33552086513 870.9226157249767 L 429.67202284917 874.9093617904965 L 431.00852483321 867.5854610837619 L 432.34502681725 870.1412814824375 L 433.68152880129 879.528982680467 L 435.01803078533 881.0590895360424 L 436.35453276937 871.6872701532917 L 437.69103475341 900.4544349845537 L 439.02753673745 908.3818503975028 L 440.36403872149 972 L 441.70054070553 972 L 443.03704268957 972 L 444.37354467361 972 L 445.71004665765 972 L 447.0465486417 972 L 448.38305062574 972 L 449.71955260978 972 L 451.05605459382 972 L 452.39255657786 972 L 453.7290585619 972 L 455.06556054594 972 L 456.40206252998 972 L 457.73856451402 943.2028787494712 L 459.07506649806 944.7487686846475 L 460.4115684821 947.2836730708248 L 461.74807046614 941.8811665635704 L 463.08457245018 940.2020225810003 L 464.42107443422 947.4315818718119 L 465.75757641826 944.332746006913 L 467.0940784023 946.5302949266303 L 468.43058038634 943.9855212829425 L 469.76708237038 972 L 471.10358435442 972 L 472.44008633846 972 L 473.7765883225 943.4131074438135 L 475.11309030655 945.8861399916228 L 476.44959229059 944.361759725073 L 477.78609427463 942.5323506213376 L 479.12259625867 941.9058497374903 L 480.45909824271 939.2477971167002 L 481.79560022675 943.2436776178275 L 483.13210221079 942.7743719957506 L 484.46860419483 943.6176304228302 L 485.80510617887 972 L 487.14160816291 972 L 488.47811014695 972 L 489.81461213099 972 L 491.15111411503 972 L 492.48761609907 972 L 493.82411808311 972 L 495.16062006715 972 L 496.49712205119 972 L 497.83362403523 941.7883767335007 L 499.17012601927 944.1699991568312 L 500.50662800331 943.4821691512863 L 501.84312998735 917.3066606444037 L 503.17963197139 919.4424579814723 L 504.51613395544 920.4923386942803 L 505.85263593948 913.9972086023939 L 507.18913792352 915.5067766682525 L 508.52563990756 889.9028687672112 L 509.8621418916 916.4228987743572 L 511.19864387564 916.4931332227969 L 512.53514585968 889.3528839846614 L 513.87164784372 916.49783182702 L 515.20814982776 936.6401718094411 L 516.5446518118 943.9191292298782 L 517.88115379584 917.5673476220514 L 519.21765577988 918.0450225628389 L 520.55415776392 941.9222770703657 L 521.89065974796 945.9794987530537 L 523.227161732 944.4751488919372 L 524.56366371604 943.3255757159293 L 525.90016570008 913.7842885737623 L 527.23666768412 919.476033752661 L 528.57316966816 916.9734839924312 L 529.9096716522 820.4702587065896 L 531.24617363624 821.1741743821052 L 532.58267562029 826.9360183387028 L 533.91917760433 828.0910862442648 L 535.25567958837 828.7394094816527 L 536.59218157241 822.7273885750437 L 537.92868355645 856.1545874785397 L 539.26518554049 849.7870647863497 L 540.60168752453 860.362782099443 L 541.93818950857 972 L 543.27469149261 922.8746234425149 L 544.61119347665 924.8380699213593 L 545.94769546069 927.1596133374704 L 547.28419744473 921.1015207275366 L 548.62069942877 922.6083660263813 L 549.95720141281 923.3134071720866 L 551.29370339685 894.0973172314681 L 552.63020538089 897.0847227806523 L 553.96670736493 903.1433783957434 L 555.30320934897 944.6295431769709 L 556.63971133301 944.0434832420659 L 557.97621331705 779.3930295595903 L 559.31271530109 786.8886677072077 L 560.64921728514 780.9343151480128 L 561.98571926918 780.5356248074642 L 563.32222125322 803.3090096288736 L 564.65872323726 713.3863669974435 L 565.9952252213 714.3286197134272 L 567.33172720534 706.4176686791205 L 568.66822918938 648.8110609199309 L 570.00473117342 812.8494806882447 L 571.34123315746 819.971266687848 L 572.6777351415 821.2505942686339 L 574.01423712554 816.5700237861614 L 575.35073910958 722.2262764560203 L 576.68724109362 806.3439680864827 L 578.02374307766 813.2356788296088 L 579.3602450617 827.2203951385072 L 580.69674704574 873.1765608931966 L 582.03324902978 863.9288291696831 L 583.36975101382 867.3775945096635 L 584.70625299786 808.6241822406024 L 586.0427549819 797.2696135863741 L 587.37925696594 903.3119382143569 L 588.71575894998 869.66000237294 L 590.05226093403 871.2144081338469 L 591.38876291807 876.2912655548473 L 592.72526490211 875.5831243228338 L 594.06176688615 872.9908148167525 L 595.39826887019 878.3090339623795 L 596.73477085423 944.5733491005775 L 598.07127283827 943.6611899044717 L 599.40777482231 942.461972521563 L 600.74427680635 944.424726657709 L 602.08077879039 939.8428108852783 L 603.41728077443 945.5807641955648 L 604.75378275847 945.7600192021731 L 606.09028474251 946.7559214269658 L 607.42678672655 941.4525395260462 L 608.76328871059 943.00847334234 L 610.09979069463 939.5398991171313 L 611.43629267867 945.2221301661763 L 612.77279466271 972 L 614.10929664675 972 L 615.44579863079 972 L 616.78230061483 972 L 618.11880259888 972 L 619.45530458292 946.0844561034104 L 620.79180656696 943.6373036128828 L 622.128308551 708.5801075366844 L 623.46481053504 686.7149239847151 L 624.80131251908 661.5906566251292 L 626.13781450312 648.9140275433517 L 627.47431648716 647.488920608575 L 628.8108184712 658.1114798170204 L 630.14732045524 582.6501077367341 L 631.48382243928 601.4099372568328 L 632.82032442332 597.7492892520438 L 634.15682640736 826.0858185832475 L 635.4933283914 859.5247373637794 L 636.82983037544 883.1754209662121 L 638.16633235948 883.984128397394 L 639.50283434352 891.2736287056943 L 640.83933632756 706.0905823457147 L 642.1758383116 798.367829946588 L 643.51234029564 798.9339532469736 L 644.84884227968 794.4588024221251 L 646.18534426372 798.7867815772397 L 647.52184624777 787.993351803863 L 648.85834823181 790.9364226610093 L 650.19485021585 791.3178122812337 L 651.53135219989 784.5758794558278 L 652.86785418393 972 L 654.20435616797 972 L 655.54085815201 972 L 656.87736013605 972 L 658.21386212009 972 L 659.55036410413 972 L 660.88686608817 972 L 662.22336807221 972 L 663.55987005625 972 L 664.89637204029 972 L 666.23287402433 972 L 667.56937600837 972 L 668.90587799241 972 L 670.24237997645 972 L 671.57888196049 972 L 672.91538394453 972 L 674.25188592857 972 L 675.58838791262 972 L 676.92488989666 943.7752790527077 L 678.2613918807 946.7080670400268 L 679.59789386474 943.0776313454812 L 680.93439584878 947.0528164550054 L 682.27089783282 943.5553140993317 L 683.60739981686 944.5980743279516 L 684.9439018009 920.8739815297691 L 686.28040378494 868.4320812059889 L 687.61690576898 863.2907466623559 L 688.95340775302 895.331310887922 L 690.28990973706 822.949645511869 L 691.6264117211 826.220336987295 L 692.96291370514 825.2845692349528 L 694.29941568918 821.1825618253615 L 695.63591767322 823.7910921138996 L 696.97241965726 817.4360234040146 L 698.3089216413 870.8689065453306 L 699.64542362534 877.5460533029573 L 700.98192560938 871.3391467406541 L 702.31842759342 944.0788579297625 L 703.65492957746 943.8888202873491 L 704.99143156151 944.9545649407507 L 706.32793354555 912.8036806565556 L 707.66443552959 915.1234496541263 L 709.00093751363 945.5158873536433 L 710.33743949767 945.3611034368366 L 711.67394148171 943.2286345385976 L 713.01044346575 946.4219176276376 L 714.34694544979 914.7732500179063 L 715.68344743383 788.0288977144257 L 717.01994941787 740.3305773431823 L 718.35645140191 764.0601359860325 L 719.69295338595 769.749378473032 L 721.02945536999 777.9454147052456 L 722.36595735403 713.4713587161281 L 723.70245933807 713.3390247050202 L 725.03896132211 651.8341339936458 L 726.37546330615 658.3079560959541 L 727.71196529019 779.3906486334972 L 729.04846727423 799.1912806814523 L 730.38496925827 797.1355192121351 L 731.72147124231 790.7620899988834 L 733.05797322636 785.9393478598466 L 734.3944752104 854.5414507490833 L 735.73097719444 841.7439921120676 L 737.06747917848 917.0447607869919 L 738.40398116252 943.2139329479228 L 739.74048314656 939.5862728905885 L 741.0769851306 972 L 742.41348711464 972 L 743.74998909868 972 L 745.08649108272 972 L 746.42299306676 972 L 747.7594950508 921.9109868445867 L 749.09599703484 922.0032152447715 L 750.43249901888 920.2293613969632 L 751.76900100292 872.5627186626468 L 753.10550298696 872.5470626401478 L 754.442004971 869.3712495551822 L 755.77850695504 851.6180598454853 L 757.11500893908 807.2053047988055 L 758.45151092312 787.2698785671586 L 759.78801290716 837.1329477702725 L 761.1245148912 846.3178123153568 L 762.46101687525 840.9614412257479 L 763.79751885929 885.1099540042695 L 765.13402084333 886.3936138193046 L 766.47052282737 882.3836961995044 L 767.80702481141 917.2586318897057 L 769.14352679545 940.6600859625102 L 770.48002877949 972 L 771.81653076353 972 L 773.15303274757 972 L 774.48953473161 972 L 775.82603671565 972 L 777.16253869969 943.9372074536495 L 778.49904068373 944.9260817968404 L 779.83554266777 946.4719389608925 L 781.17204465181 939.3566582611558 L 782.50854663585 944.2897133763045 L 783.84504861989 944.7123131192405 L 785.18155060393 939.7218352074068 L 786.51805258797 950.0602618519962 L 787.85455457201 940.6432468499079 L 789.19105655605 972 L 790.5275585401 945.351494311131 L 791.86406052414 941.7802580837598 L 793.20056250818 939.3901491350874 L 794.53706449222 941.938991451022 L 795.87356647626 946.7137789360204 L 797.2100684603 949.6075147828518 L 798.54657044434 943.4581079241004 L 799.88307242838 946.3820062793113 L 801.21957441242 943.9103852885524 L 802.55607639646 972 L 803.8925783805 972 L 805.22908036454 972 L 806.56558234858 862.8183827588357 L 807.90208433262 858.535140690653 L 809.23858631666 879.9162472586814 L 810.5750883007 887.2768204656402 L 811.91159028474 879.5449729104357 L 813.24809226878 858.5862690179074 L 814.58459425282 877.8420492453624 L 815.92109623686 879.8891335109666 L 817.2575982209 884.0662178938456 L 818.59410020494 972 L 819.93060218899 972 L 821.26710417303 972 L 822.60360615707 972 L 823.94010814111 972 L 825.27661012515 972 L 826.61311210919 861.5930380444039 L 827.94961409323 860.0526168698736 L 829.28611607727 861.6991425339106 L 830.62261806131 867.8220937311924 L 831.95912004535 863.8369468643411 L 833.29562202939 859.5387917332905 L 834.63212401343 862.191340620566 L 835.96862599747 856.985011771077 L 837.30512798151 871.3410651742269 L 838.64162996555 940.1659752102265 L 839.97813194959 941.9190938743754 L 841.31463393363 942.1190035551068 L 842.65113591767 942.8853696350743 L 843.98763790171 940.7968386399781 L 845.32413988575 816.5085350817582 L 846.66064186979 821.7866388029836 L 847.99714385384 801.4714935170605 L 849.33364583788 755.5302667804488 L 850.67014782192 802.911137638823 L 852.00664980596 790.7361105952052 L 853.34315179 801.0418038228216 L 854.67965377404 792.1164560843907 L 856.01615575808 796.165668033759 L 857.35265774212 916.0337251370131 L 858.68915972616 886.442832952708 L 860.0256617102 908.0515775505041 L 861.36216369424 950.0007340858025 L 862.69866567828 907.817481675157 L 864.03516766232 915.7710386021074 L 865.37166964636 916.1659984837745 L 866.7081716304 918.4016722892644 L 868.04467361444 916.7542058211775 L 869.38117559848 917.5508938489031 L 870.71767758252 946.2082978972157 L 872.05417956656 943.1935787089159 L 873.3906815506 940.981018554399 L 874.72718353464 972 L 876.06368551868 972 L 877.40018750273 972 L 878.73668948677 972 L 880.07319147081 972 L 881.40969345485 972 L 882.74619543889 972 L 884.08269742293 972 L 885.41919940697 941.0737520425848 L 886.75570139101 945.7004489423366 L 888.09220337505 941.6082590913481 L 889.42870535909 940.209055287189 L 890.76520734313 945.0559324118545 L 892.10170932717 942.5160223714571 L 893.43821131121 944.4550393180212 L 894.77471329525 944.3158699664014 L 896.11121527929 943.6867342118031 L 897.44771726333 972 L 898.78421924737 972 L 900.12072123141 972 L 901.45722321545 972 L 902.79372519949 972 L 904.13022718353 972 L 905.46672916758 972 L 906.80323115162 972 L 908.13973313566 972 L 909.4762351197 972 L 910.81273710374 972 L 912.14923908778 972 L 913.48574107182 943.8941763770795 L 914.82224305586 942.4083113179273 L 916.1587450399 943.4868348894273 L 917.49524702394 940.3333954013947 L 918.83174900798 941.0904946400688 L 920.16825099202 948.7205090320126 L 921.50475297606 941.3683821029896 L 922.8412549601 947.0873062671935 L 924.17775694414 947.5131795728129 L 925.51425892818 972 L 926.85076091222 899.6673446086503 L 928.18726289626 897.7145527754557 L 929.5237648803 864.4526195241388 L 930.86026686434 870.3552538813844 L 932.19676884838 866.9578735552997 L 933.53327083242 868.5948047521335 L 934.86977281647 872.6394059255701 L 936.20627480051 873.6505803926843 L 937.54277678455 870.1118450179165 L 938.87927876859 915.0004252526469 L 940.21578075263 915.0215461602156 L 941.55228273667 944.2507676290504 L 942.88878472071 943.7736007557114 L 944.22528670475 871.1457069574784 L 945.56178868879 865.3539485309358 L 946.89829067283 870.8661227748797 L 948.23479265687 972 L 949.57129464091 972 L 950.90779662495 972 L 952.24429860899 972 L 953.58080059303 972 L 954.91730257707 972 L 956.25380456111 972 L 957.59030654515 972 L 958.92680852919 972 L 960.26331051323 740.0749266014413 L 961.59981249727 694.1025573401255 L 962.93631448132 692.8978986822927 L 964.27281646536 726.8655928893965 L 965.6093184494 724.2534047689117 L 966.94582043344 733.1708718456708 L 968.28232241748 754.8179375574997 L 969.61882440152 738.8902150567062 L 970.95532638556 909.6042875928962 L 972.2918283696 915.2122863397628 L 973.62833035364 942.6096211319671 L 974.96483233768 943.7112755478806 L 976.30133432172 797.7987787939325 L 977.63783630576 801.0751348354693 L 978.9743382898 800.7467256341896 L 980.31084027384 807.5482332839485 L 981.64734225788 831.6769458753263 L 982.98384424192 801.3102943696565 L 984.32034622596 805.1770614956861 L 985.65684821 803.5462643983112 L 986.99335019404 803.683694715128 L 988.32985217808 943.0542826435004 L 989.66635416212 942.3767134906429 L 991.00285614616 944.162551567712 L 992.33935813021 944.2038955479261 L 993.67586011425 940.6415451649398 L 995.01236209829 972 L 996.34886408233 972 L 997.68536606637 972 L 999.02186805041 972 L 1000.3583700344 972 L 1001.6948720185 944.1239824774592 L 1003.0313740025 911.0840779969948 L 1004.3678759866 853.9101589386152 L 1005.7043779706 743.3898161739844 L 1007.0408799547 639.1504032413163 L 1008.3773819387 606.2562074630547 L 1009.7138839227 579.5675008400401 L 1011.0503859068 543.6274932987249 L 1012.3868878908 543.9926318444068 L 1013.7233898749 558.8705321477571 L 1015.0598918589 602.9749052430991 L 1016.3963938429 652.3286059561249 L 1017.732895827 793.6891934812312 L 1019.069397811 887.0987691568059 L 1020.4058997951 884.5778521126333 L 1021.7424017791 915.1145330386578 L 1023.0789037631 944.2075237105377 L 1024.4154057472 952.9331777035459 L 1025.7519077312 944.1127989875014 L 1027.0884097153 912.98882460492 L 1028.4249116993 912.190604317402 L 1029.7614136833 915.6643523691043 L 1031.0979156674 912.2879616480093 L 1032.4344176514 946.1255119587105 L 1033.7709196355 946.005255835275 L 1035.1074216195 942.0810933825657 L 1036.4439236035 945.3176137629775 L 1037.7804255876 941.3903764612384 L 1039.1169275716 946.0790185745055 L 1040.4534295557 919.5011687027273 L 1041.7899315397 915.615280619216 L 1043.1264335237 865.1296685978639 L 1044.4629355078 866.2686739130367 L 1045.7994374918 867.0441425069595 L 1047.1359394759 833.0106055633385 L 1048.4724414599 846.4707586782728 L 1049.8089434439 837.738442149817 L 1051.145445428 865.3292439580557 L 1052.481947412 888.2977294059257 L 1053.8184493961 895.680120754999 L 1055.1549513801 946.102792169213 L 1056.4914533641 943.6734694812703 L 1057.8279553482 940.7291528191138 L 1059.1644573322 972 L 1060.5009593163 972 L 1061.8374613003 972 L 1063.1739632844 972 L 1064.5104652684 972 L 1065.8469672524 972 L 1067.1834692365 972 L 1068.5199712205 942.1745466083584 L 1069.8564732046 943.4556584846715 L 1071.1929751886 945.3839338319649 L 1072.5294771726 943.5223431522569 L 1073.8659791567 944.1211718808908 L 1075.2024811407 943.7940884444273 L 1076.5389831248 941.2127897547379 L 1077.8754851088 942.7850865565329 L 1079.2119870928 940.0565010579248 L 1080.5484890769 972 L 1081.8849910609 972 L 1083.221493045 972 L 1084.557995029 972 L 1085.894497013 972 L 1087.2309989971 972 L 1088.5675009811 972 L 1089.9040029652 972 L 1091.2405049492 972 L 1092.5770069332 900.4278938078935 L 1093.9135089173 901.4050130496839 L 1095.2500109013 901.9611383839882 L 1096.5865128854 903.7283346006036 L 1097.9230148694 899.6396250255293 L 1099.2595168534 856.0374733422207 L 1100.5960188375 848.727559782173 L 1101.9325208215 853.1881021499959 L 1103.2690228056 851.4808123510288 L 1104.6055247896 914.3140362144389 L 1105.9420267736 920.9368979162434 L 1107.2785287577 930.4127647669764 L 1108.6150307417 896.096148696022 L 1109.9515327258 893.4169600054928 L 1111.2880347098 942.8120118770728 L 1112.6245366938 941.6027273863199 L 1113.9610386779 947.0609872494417 L 1115.2975406619 944.7512283433452 L 1116.634042646 945.7436874673015 L 1117.97054463 952.7891009075715 L 1119.307046614 943.966541959716 L 1120.6435485981 972 L 1121.9800505821 972 L 1123.3165525662 862.7335761600391 L 1124.6530545502 860.9851073454462 L 1125.9895565343 871.2110760077834 L 1127.3260585183 863.2192960502896 L 1128.6625605023 863.4714924185463 L 1129.9990624864 865.4784432773496 L 1131.3355644704 862.7464156138421 L 1132.6720664545 863.3622276056557 L 1134.0085684385 863.2265954885859 L 1135.3450704225 972 L 1136.6815724066 972 L 1138.0180743906 972 L 1139.3545763747 944.2774174001377 L 1140.6910783587 943.6936009732175 L 1142.0275803427 943.4240557643947 L 1143.3640823268 915.5759170988576 L 1144.7005843108 913.4080135854655 L 1146.0370862949 910.8862805027381 L 1147.3735882789 864.7936278531155 L 1148.7100902629 862.610252128475 L 1150.046592247 857.5808648848588 L 1151.383094231 895.0696342143088 L 1152.7195962151 838.4675390013317 L 1154.0560981991 676.5919492126295 L 1155.3926001831 716.1049220791549 L 1156.7291021672 709.0116162622168 L 1158.0656041512 716.8504469659241 L 1159.4021061353 761.9063745861631 L 1160.7386081193 755.5286876142791 L 1162.0751101033 765.7905868910832 L 1163.4116120874 759.5945593524416 L 1164.7481140714 773.6473351036944 L 1166.0846160555 972 L 1167.4211180395 972 L 1168.7576200235 972 L 1170.0941220076 941.7915778015076 L 1171.4306239916 947.4656223376207 L 1172.7671259757 946.0048977936676 L 1174.1036279597 945.8392044632079 L 1175.4401299437 946.7790369992933 L 1176.7766319278 942.7408057253848 L 1178.1131339118 938.1365375680217 L 1179.4496358959 918.0015436988139 L 1180.7861378799 918.830949979159 L 1182.122639864 915.5561214912857 L 1183.459141848 914.410859887123 L 1184.795643832 915.8581384536013 L 1186.1321458161 912.1681577755525 L 1187.4686478001 947.1795797939523 L 1188.8051497842 944.2238347638877 L 1190.1416517682 944.748698819121 L 1191.4781537522 972 L 1192.8146557363 972 L 1194.1511577203 972 L 1195.4876597044 972 L 1196.8241616884 972 L 1198.1606636724 972 L 1199.4971656565 972 L 1200.8336676405 972 L 1202.1701696246 972 L 1203.5066716086 972 L 1204.8431735926 972 L 1206.1796755767 972 L 1207.5161775607 972 L 1208.8526795448 972 L 1210.1891815288 972 L 1211.5256835128 972 L 1212.8621854969 972 L 1214.1986874809 972 L 1215.535189465 972 L 1216.871691449 972 L 1218.208193433 972 L 1219.5446954171 972 L 1220.8811974011 972 L 1222.2176993852 972 L 1223.5542013692 972 L 1224.8907033532 972 L 1226.2272053373 972 L 1227.5637073213 972 L 1228.9002093054 972 L 1230.2367112894 972 L 1231.5732132734 946.5402482805604 L 1232.9097152575 940.574151312249 L 1234.2462172415 943.7290237387674 L 1235.5827192256 941.8076111003758 L 1236.9192212096 943.4222202885314 L 1238.2557231937 941.6565148033123 L 1239.5922251777 918.1074868904004 L 1240.9287271617 915.4003882554578 L 1242.2652291458 886.6805830631042 L 1243.6017311298 921.0632400690084 L 1244.9382331139 925.814178834329 L 1246.2747350979 921.8734782390171 L 1247.6112370819 869.6725345917272 L 1248.947739066 872.0130883471097 L 1250.28424105 869.4792874775002 L 1251.6207430341 894.0370228980585 L 1252.9572450181 893.068677223709 L 1254.2937470021 919.8034772446766 L 1255.6302489862 921.0633510323399 L 1256.9667509702 924.1728058744366 L 1258.3032529543 920.6437981290899 L 1259.6397549383 972 L 1260.9762569223 972 L 1262.3127589064 972 L 1263.6492608904 972 L 1264.9857628745 972 L 1266.3222648585 972 L 1267.6587668425 972 L 1268.9952688266 972 L 1270.3317708106 972 L 1271.6682727947 972 L 1273.0047747787 972 L 1274.3412767627 972 L 1275.6777787468 972 L 1277.0142807308 972 L 1278.3507827149 972 L 1279.6872846989 942.7189020669716 L 1281.0237866829 917.5265322504868 L 1282.360288667 885.8710567607973 L 1283.696790651 888.1700857926351 L 1285.0332926351 886.8720275687197 L 1286.3697946191 889.9372421395274 L 1287.7062966031 890.0718837577687 L 1289.0427985872 883.8574177911578 L 1290.3793005712 858.7560287219075 L 1291.7158025553 887.6023141025948 L 1293.0523045393 898.3015777225647 L 1294.3888065234 922.6629372203602 L 1295.7253085074 780.245080681527 L 1297.0618104914 784.7073030388194 L 1298.3983124755 786.3544825131219 L 1299.7348144595 781.8981695076385 L 1301.0713164436 756.6609565614397 L 1302.4078184276 750.755554343345 L 1303.7443204116 746.3736123327694 L 1305.0808223957 750.4540311315773 L 1306.4173243797 768.5726181166042 L 1307.7538263638 910.7975277269137 L 1309.0903283478 916.826437243051 L 1310.4268303318 916.9233398137261 L 1311.7633323159 944.7523333710755 L 1313.0998342999 942.2156172040393 L 1314.436336284 972 L 1315.772838268 972 L 1317.109340252 972 L 1318.4458422361 972 L 1319.7823442201 972 L 1321.1188462042 972 L 1322.4553481882 972 L 1323.7918501722 972 L 1325.1283521563 972 L 1326.4648541403 972 L 1327.8013561244 972 L 1329.1378581084 972 L 1330.4743600924 972 L 1331.8108620765 972 L 1333.1473640605 972 L 1334.4838660446 972 L 1335.8203680286 920.0074150443382 L 1337.1568700126 931.4908205712183 L 1338.4933719967 925.7014243470788 L 1339.8298739807 925.707763293104 L 1341.1663759648 920.9678160828304 L 1342.5028779488 922.6863278438601 L 1343.8393799328 919.7170110839999 L 1345.1758819169 921.3629747694202 L 1346.5123839009 925.9920833947532 L 1347.848885885 972 L 1349.185387869 972 L 1350.5218898531 972 L 1351.8583918371 972 L 1353.1948938211 972 L 1354.5313958052 972 L 1355.8678977892 972 L 1357.2043997733 972 L 1358.5409017573 945.6688284392166 L 1359.8774037413 942.6506946489301 L 1361.2139057254 945.1751457400289 L 1362.5504077094 944.4450397071557 L 1363.8869096935 944.1422902003469 L 1365.2234116775 944.7971315018361 L 1366.5599136615 943.0770185268244 L 1367.8964156456 944.2771845740062 L 1369.2329176296 944.008288224898 L 1370.5694196137 972 L 1371.9059215977 972 L 1373.2424235817 684.8505526320084 L 1374.5789255658 678.5344929512663 L 1375.9154275498 694.7687507019991 L 1377.2519295339 676.6835243314135 L 1378.5884315179 684.0360524258949 L 1379.9249335019 682.8970486688293 L 1381.261435486 674.5228163277046 L 1382.59793747 682.1546251720838 L 1383.9344394541 681.0007495033589 L 1385.2709414381 972 L 1386.6074434221 972 L 1387.9439454062 941.5924853681929 L 1389.2804473902 946.2839919180198 L 1390.6169493743 942.7789459612119 L 1391.9534513583 916.5370615419091 L 1393.2899533423 911.3302687022973 L 1394.6264553264 910.7882996792328 L 1395.9629573104 914.8022264971017 L 1397.2994592945 916.695877382654 L 1398.6359612785 914.2719827242744 L 1399.9724632625 944.6374064628978 L 1401.3089652466 943.0836463845632 L 1402.6454672306 945.0829735517896 L 1403.9819692147 972 L 1405.3184711987 972 L 1406.6549731827 972 L 1407.9914751668 972 L 1409.3279771508 972 L 1410.6644791349 972 L 1412.0009811189 972 L 1413.337483103 972 L 1414.673985087 972 L 1416.010487071 972 L 1417.3469890551 972 L 1418.6834910391 972 L 1420.0199930232 972 L 1421.3564950072 972 L 1422.6929969912 972 L 1424.0294989753 972 L 1425.3660009593 972 L 1426.7025029434 972 L 1428.0390049274 972 L 1429.3755069114 972 L 1430.7120088955 972 L 1432.0485108795 972 L 1433.3850128636 972 L 1434.7215148476 972 L 1436.0580168316 972 L 1437.3945188157 972 L 1438.7310207997 972 L 1440.0675227838 972 L 1441.4040247678 972 L 1442.7405267518 972 L 1444.0770287359 972 L 1445.4135307199 972 L 1446.750032704 972 L 1448.086534688 972 L 1449.423036672 972 L 1450.7595386561 972 L 1452.0960406401 972 L 1453.4325426242 972 L 1454.7690446082 972 L 1456.1055465922 972 L 1457.4420485763 946.841139253126 L 1458.7785505603 943.5040296011994 L 1460.1150525444 941.2797096004887 L 1461.4515545284 943.8391489901448 L 1462.7880565124 944.514716826821 L 1464.1245584965 944.5592481671079 L 1465.4610604805 940.725565162031 L 1466.7975624646 945.1474305673553 L 1468.1340644486 943.4718425475425 L 1469.4705664327 972 L 1470.8070684167 972 L 1472.1435704007 972 L 1473.4800723848 972 L 1474.8165743688 972 L 1476.1530763529 972 L 1477.4895783369 972 L 1478.8260803209 972 L 1480.162582305 972 L 1481.499084289 972 L 1482.8355862731 972 L 1484.1720882571 972 L 1485.5085902411 972 L 1486.8450922252 972 L 1488.1815942092 972 L 1489.5180961933 972 L 1490.8545981773 972 L 1492.1911001613 972 L 1493.5276021454 972 L 1494.8641041294 972 L 1496.2006061135 972 L 1497.5371080975 972 L 1498.8736100815 972 L 1500.2101120656 972 L 1501.5466140496 972 L 1502.8831160337 972 L 1504.2196180177 972 L 1505.5561200017 972 L 1506.8926219858 972 L 1508.2291239698 943.3784373958513 L 1509.5656259539 941.7872082009505 L 1510.9021279379 946.5720419455197 L 1512.2386299219 940.5271831791304 L 1513.575131906 943.3771529881714 L 1514.91163389 941.8404216901306 L 1516.2481358741 941.7826151539268 L 1517.5846378581 941.0733052587234 L 1518.9211398421 943.4793834605025 L 1520.2576418262 972 L 1521.5941438102 972 L 1522.9306457943 972 L 1524.2671477783 972 L 1525.6036497624 972 L 1526.9401517464 972 L 1528.2766537304 972 L 1529.6131557145 972 L 1530.9496576985 972 L 1532.2861596826 972 L 1533.6226616666 972 L 1534.9591636506 972 L 1536.2956656347 972 L 1537.6321676187 972 L 1538.9686696028 972 L 1540.3051715868 972 L 1541.6416735708 972 L 1542.9781755549 972 L 1544.3146775389 972 L 1545.651179523 972 L 1546.987681507 972 L 1548.324183491 972 L 1549.6606854751 972 L 1550.9971874591 972 L 1552.3336894432 972 L 1553.6701914272 972 L 1555.0066934112 972 L 1556.3431953953 972 L 1557.6796973793 816.960365605391 L 1559.0161993634 817.3529780183077 L 1560.3527013474 821.5979189071455 L 1561.6892033314 806.1599892933132 L 1563.0257053155 811.1532109058588 L 1564.3622072995 816.1596292056304 L 1565.6987092836 810.8383853199156 L 1567.0352112676 813.2084105876909 L 1568.3717132516 795.9946867100188 L 1569.7082152357 947.1079462676515 L 1571.0447172197 942.1733996033627 L 1572.3812192038 941.6907265309248 L 1573.7177211878 944.5047249267947 L 1575.0542231718 944.5060820317391 L 1576.3907251559 945.9731293651164 L 1577.7272271399 943.1387263155781 L 1579.063729124 941.8058594788461 L 1580.400231108 972 L 1581.7367330921 972 L 1583.0732350761 972 L 1584.4097370601 972 L 1585.7462390442 972 L 1587.0827410282 972 L 1588.4192430123 972 L 1589.7557449963 972 L 1591.0922469803 972 L 1592.4287489644 972 L 1593.7652509484 972 L 1595.1017529325 972 L 1596.4382549165 972 L 1597.7747569005 972 L 1599.1112588846 972 L 1600.4477608686 972 L 1601.7842628527 972 L 1603.1207648367 972 L 1604.4572668207 913.4449988442843 L 1605.7937688048 942.2286867630652 L 1607.1302707888 672.8013387758913 L 1608.4667727729 673.0530159731252 L 1609.8032747569 661.3314767704348 L 1611.1397767409 670.3423177776455 L 1612.476278725 701.541184481966 L 1613.812780709 705.5638180915205 L 1615.1492826931 708.5712189807286 L 1616.4857846771 644.8014789896696 L 1617.8222866611 654.0633276868928 L 1619.1587886452 917.3072173658487 L 1620.4952906292 921.4016160197688 L 1621.8317926133 923.90528702394 L 1623.1682945973 925.7414777122527 L 1624.5047965813 919.1080075375936 L 1625.8412985654 919.111315621305 L 1627.1778005494 886.7450520251878 L 1628.5143025335 942.8718530941273 L 1629.8508045175 947.1333736691159 L 1631.1873065015 946.5056561500077 L 1632.5238084856 942.0206182323861 L 1633.8603104696 942.3905261523594 L 1635.1968124537 941.726190762951 L 1636.5333144377 941.7184497909354 L 1637.8698164218 916.0089756450419 L 1639.2063184058 948.6332265095859 L 1640.5428203898 941.7559518025143 L 1641.8793223739 945.7313733155147 L 1643.2158243579 941.7994280499436 L 1644.552326342 944.3032544139126 L 1645.888828326 946.3042476813785 L 1647.22533031 942.2512260916545 L 1648.5618322941 690.9057310663243 L 1649.8983342781 718.3549610260739 L 1651.2348362622 720.1346104516874 L 1652.5713382462 703.1195632440363 L 1653.9078402302 692.118792019819 L 1655.2443422143 686.1028384544908 L 1656.5808441983 688.7295534711993 L 1657.9173461824 686.070268397958 L 1659.2538481664 691.8776149297396 L 1660.5903501504 911.4093127351795 L 1661.9268521345 948.4382641084486 L 1663.2633541185 939.9898069433027 L 1664.5998561026 943.3097383329072 L 1665.9363580866 947.2253150307122 L 1667.2728600706 945.2304300482675 L 1668.6093620547 942.9877976878488 L 1669.9458640387 942.218962422165 L 1671.2823660228 946.4883849715645 L 1672.6188680068 941.8465289285272 L 1673.9553699908 941.2447576644217 L 1675.2918719749 940.8381662294743 L 1676.6283739589 945.6331060970597 L 1677.964875943 972 L 1679.301377927 972 L 1680.637879911 972 L 1681.9743818951 972 L 1683.3108838791 896.2190562756545 L 1684.6473858632 895.2380252125033 L 1685.9838878472 884.488149556002 L 1687.3203898312 891.1038429470439 L 1688.6568918153 868.5493985182659 L 1689.9933937993 862.959276185883 L 1691.3298957834 841.0657823103093 L 1692.6663977674 832.3876328457288 L 1694.0028997514 834.7505334783635 L 1695.3394017355 836.5315943953361 L 1696.6759037195 856.3829377212492 L 1698.0124057036 843.6021474627854 L 1699.3489076876 848.6304730351414 L 1700.6854096717 943.8144400494407 L 1702.0219116557 945.6273360812008 L 1703.3584136397 972 L 1704.6949156238 972 L 1706.0314176078 943.2347708405035 L 1707.3679195919 941.344143003799 L 1708.7044215759 943.8047317136551 L 1710.0409235599 943.2353042831226 L 1711.377425544 942.5317174351778 L 1712.713927528 941.3508242641265 L 1714.0504295121 946.118893114083 L 1715.3869314961 944.8456845152738 L 1716.7234334801 945.1998729528725 L 1718.0599354642 972 L 1719.3964374482 972 L 1720.7329394323 972 L 1722.0694414163 972 L 1723.4059434003 972 L 1724.7424453844 972 L 1726.0789473684 972 L 1727.4154493525 972 L 1728.7519513365 972 L 1730.0884533205 972 L 1731.4249553046 972 L 1732.7614572886 972 L 1734.0979592727 972 L 1735.4344612567 972 L 1736.7709632407 972 L 1738.1074652248 972 L 1739.4439672088 972 L 1740.7804691929 972 L 1742.1169711769 972 L 1743.4534731609 972 L 1744.789975145 972 L 1746.126477129 972 L 1747.4629791131 972 L 1748.7994810971 972 L 1750.1359830811 972 L 1751.4724850652 940.5815979093038 L 1752.8089870492 891.6362292157896 L 1754.1454890333 887.5101730922169 L 1755.4819910173 900.4754057313988 L 1756.8184930014 890.3958195882454 L 1758.1549949854 893.3128169578791 L 1759.4914969694 892.5168431879321 L 1760.8279989535 891.7704408956724 L 1762.1645009375 892.3244410451016 L 1763.5010029216 919.418326979412 L 1764.8375049056 972 L 1766.1740068896 972 L 1767.5105088737 946.8570682547638 L 1768.8470108577 891.0413209042266 L 1770.1835128418 886.9041733693614 L 1771.5200148258 893.7998050536994 L 1772.8565168098 890.7190548447638 L 1774.1930187939 896.5347689932937 L 1775.5295207779 893.9215928645192 L 1776.866022762 900.4362071326698 L 1778.202524746 891.749474794518 L 1779.53902673 918.9748906240483 L 1780.8755287141 972 L 1782.2120306981 972 L 1783.5485326822 972 L 1784.8850346662 972 L 1786.2215366502 972 L 1787.5580386343 972 L 1788.8945406183 972 L 1790.2310426024 972 L 1791.5675445864 972 L 1792.9040465704 972 L 1794.2405485545 875.4026591489915 L 1795.5770505385 872.3495967795565 L 1796.9135525226 872.0130299525848 L 1798.2500545066 864.1447551178331 L 1799.5865564906 874.1074446983615 L 1800.9230584747 871.4847569796489 L 1802.2595604587 873.2430230080098 L 1803.5960624428 877.1920404162022 L 1804.9325644268 868.5891540087966 L 1806.2690664108 972 L 1807.6055683949 972 L 1808.9420703789 972 L 1810.278572363 972 L 1811.615074347 972 L 1812.9515763311 972 L 1814.2880783151 972 L 1815.6245802991 972 L 1816.9610822832 972 L 1818.2975842672 972 L 1819.6340862513 972 L 1820.9705882353 972" class="highcharts-graph" data-z-index="1" stroke="#7cb5ec" stroke-width="2" stroke-linejoin="round" stroke-linecap="round"></path></g><g class="highcharts-markers highcharts-series-0 highcharts-line-series highcharts-color-0" data-z-index="0.1" opacity="1" transform="translate(71,10) scale(1 1)" clip-path="none"></g></g><text x="960" text-anchor="middle" class="highcharts-title" data-z-index="4" style="color:#333333;font-size:18px;fill:#333333;" y="24"></text><text x="960" text-anchor="middle" class="highcharts-subtitle" data-z-index="4" style="color:#666666;fill:#666666;" y="24"></text><text x="10" text-anchor="start" class="highcharts-caption" data-z-index="4" style="color:#666666;fill:#666666;" y="1077"></text><g class="highcharts-legend highcharts-no-tooltip" data-z-index="7" transform="translate(918,1039)"><rect fill="none" class="highcharts-legend-box" rx="0" ry="0" x="0" y="0" width="83" height="26" visibility="visible"></rect><g data-z-index="1"><g><g class="highcharts-legend-item highcharts-line-series highcharts-color-0 highcharts-series-0" data-z-index="1" transform="translate(8,3)"><path fill="none" d="M 0 11 L 16 11" class="highcharts-graph" stroke="#7cb5ec" stroke-width="2"></path><path fill="#7cb5ec" d="M 8 15 A 4 4 0 1 1 8.003999999333336 14.999998000000167 Z" class="highcharts-point" opacity="1"></path><text x="21" style="color:#333333;cursor:pointer;font-size:12px;font-weight:bold;fill:#333333;" text-anchor="start" data-z-index="2" y="15">Entropy</text></g></g></g></g><g class="highcharts-axis-labels highcharts-xaxis-labels" data-z-index="7"><text x="87.692909780665" style="color:#666666;cursor:default;font-size:11px;fill:#666666;" text-anchor="middle" transform="translate(0,0)" y="1001" opacity="1">0</text><text x="154.51800898269" style="color:#666666;cursor:default;font-size:11px;fill:#666666;" text-anchor="middle" transform="translate(0,0)" y="1001" opacity="1">50</text><text x="221.34310818471" style="color:#666666;cursor:default;font-size:11px;fill:#666666;" text-anchor="middle" transform="translate(0,0)" y="1001" opacity="1">100</text><text x="288.16820738674" style="color:#666666;cursor:default;font-size:11px;fill:#666666;" text-anchor="middle" transform="translate(0,0)" y="1001" opacity="1">150</text><text x="354.99330658876" style="color:#666666;cursor:default;font-size:11px;fill:#666666;" text-anchor="middle" transform="translate(0,0)" y="1001" opacity="1">200</text><text x="421.81840579078" style="color:#666666;cursor:default;font-size:11px;fill:#666666;" text-anchor="middle" transform="translate(0,0)" y="1001" opacity="1">250</text><text x="488.64350499281" style="color:#666666;cursor:default;font-size:11px;fill:#666666;" text-anchor="middle" transform="translate(0,0)" y="1001" opacity="1">300</text><text x="555.46860419483" style="color:#666666;cursor:default;font-size:11px;fill:#666666;" text-anchor="middle" transform="translate(0,0)" y="1001" opacity="1">350</text><text x="622.29370339685" style="color:#666666;cursor:default;font-size:11px;fill:#666666;" text-anchor="middle" transform="translate(0,0)" y="1001" opacity="1">400</text><text x="689.11880259888" style="color:#666666;cursor:default;font-size:11px;fill:#666666;" text-anchor="middle" transform="translate(0,0)" y="1001" opacity="1">450</text><text x="755.9439018009" style="color:#666666;cursor:default;font-size:11px;fill:#666666;" text-anchor="middle" transform="translate(0,0)" y="1001" opacity="1">500</text><text x="822.76900100292" style="color:#666666;cursor:default;font-size:11px;fill:#666666;" text-anchor="middle" transform="translate(0,0)" y="1001" opacity="1">550</text><text x="889.59410020494" style="color:#666666;cursor:default;font-size:11px;fill:#666666;" text-anchor="middle" transform="translate(0,0)" y="1001" opacity="1">600</text><text x="956.41919940697" style="color:#666666;cursor:default;font-size:11px;fill:#666666;" text-anchor="middle" transform="translate(0,0)" y="1001" opacity="1">650</text><text x="1023.244298609" style="color:#666666;cursor:default;font-size:11px;fill:#666666;" text-anchor="middle" transform="translate(0,0)" y="1001" opacity="1">700</text><text x="1090.069397811" style="color:#666666;cursor:default;font-size:11px;fill:#666666;" text-anchor="middle" transform="translate(0,0)" y="1001" opacity="1">750</text><text x="1156.894497013" style="color:#666666;cursor:default;font-size:11px;fill:#666666;" text-anchor="middle" transform="translate(0,0)" y="1001" opacity="1">800</text><text x="1223.7195962151" style="color:#666666;cursor:default;font-size:11px;fill:#666666;" text-anchor="middle" transform="translate(0,0)" y="1001" opacity="1">850</text><text x="1290.5446954171" style="color:#666666;cursor:default;font-size:11px;fill:#666666;" text-anchor="middle" transform="translate(0,0)" y="1001" opacity="1">900</text><text x="1357.3697946191" style="color:#666666;cursor:default;font-size:11px;fill:#666666;" text-anchor="middle" transform="translate(0,0)" y="1001" opacity="1">950</text><text x="1424.1948938211" style="color:#666666;cursor:default;font-size:11px;fill:#666666;" text-anchor="middle" transform="translate(0,0)" y="1001" opacity="1">1000</text><text x="1491.0199930232" style="color:#666666;cursor:default;font-size:11px;fill:#666666;" text-anchor="middle" transform="translate(0,0)" y="1001" opacity="1">1050</text><text x="1557.8450922252" style="color:#666666;cursor:default;font-size:11px;fill:#666666;" text-anchor="middle" transform="translate(0,0)" y="1001" opacity="1">1100</text><text x="1624.6701914272" style="color:#666666;cursor:default;font-size:11px;fill:#666666;" text-anchor="middle" transform="translate(0,0)" y="1001" opacity="1">1150</text><text x="1691.4952906292" style="color:#666666;cursor:default;font-size:11px;fill:#666666;" text-anchor="middle" transform="translate(0,0)" y="1001" opacity="1">1200</text><text x="1758.3203898312" style="color:#666666;cursor:default;font-size:11px;fill:#666666;" text-anchor="middle" transform="translate(0,0)" y="1001" opacity="1">1250</text><text x="1825.1454890333" style="color:#666666;cursor:default;font-size:11px;fill:#666666;" text-anchor="middle" transform="translate(0,0)" y="1001" opacity="1">1300</text><text x="1891.9705882353" style="color:#666666;cursor:default;font-size:11px;fill:#666666;" text-anchor="middle" transform="translate(0,0)" y="1001" opacity="1">1350</text></g><g class="highcharts-axis-labels highcharts-yaxis-labels" data-z-index="7"><text x="56" style="color:#666666;cursor:default;font-size:11px;fill:#666666;" text-anchor="end" transform="translate(0,0)" y="986" opacity="1">0</text><text x="56" style="color:#666666;cursor:default;font-size:11px;fill:#666666;" text-anchor="end" transform="translate(0,0)" y="929" opacity="1">0.1</text><text x="56" style="color:#666666;cursor:default;font-size:11px;fill:#666666;" text-anchor="end" transform="translate(0,0)" y="872" opacity="1">0.2</text><text x="56" style="color:#666666;cursor:default;font-size:11px;fill:#666666;" text-anchor="end" transform="translate(0,0)" y="814" opacity="1">0.3</text><text x="56" style="color:#666666;cursor:default;font-size:11px;fill:#666666;" text-anchor="end" transform="translate(0,0)" y="757" opacity="1">0.4</text><text x="56" style="color:#666666;cursor:default;font-size:11px;fill:#666666;" text-anchor="end" transform="translate(0,0)" y="700" opacity="1">0.5</text><text x="56" style="color:#666666;cursor:default;font-size:11px;fill:#666666;" text-anchor="end" transform="translate(0,0)" y="643" opacity="1">0.6</text><text x="56" style="color:#666666;cursor:default;font-size:11px;fill:#666666;" text-anchor="end" transform="translate(0,0)" y="586" opacity="1">0.7</text><text x="56" style="color:#666666;cursor:default;font-size:11px;fill:#666666;" text-anchor="end" transform="translate(0,0)" y="529" opacity="1">0.8</text><text x="56" style="color:#666666;cursor:default;font-size:11px;fill:#666666;" text-anchor="end" transform="translate(0,0)" y="471" opacity="1">0.9</text><text x="56" style="color:#666666;cursor:default;font-size:11px;fill:#666666;" text-anchor="end" transform="translate(0,0)" y="414" opacity="1">1</text><text x="56" style="color:#666666;cursor:default;font-size:11px;fill:#666666;" text-anchor="end" transform="translate(0,0)" y="357" opacity="1">1.1</text><text x="56" style="color:#666666;cursor:default;font-size:11px;fill:#666666;" text-anchor="end" transform="translate(0,0)" y="300" opacity="1">1.2</text><text x="56" style="color:#666666;cursor:default;font-size:11px;fill:#666666;" text-anchor="end" transform="translate(0,0)" y="243" opacity="1">1.3</text><text x="56" style="color:#666666;cursor:default;font-size:11px;fill:#666666;" text-anchor="end" transform="translate(0,0)" y="186" opacity="1">1.4</text><text x="56" style="color:#666666;cursor:default;font-size:11px;fill:#666666;" text-anchor="end" transform="translate(0,0)" y="128" opacity="1">1.5</text><text x="56" style="color:#666666;cursor:default;font-size:11px;fill:#666666;" text-anchor="end" transform="translate(0,0)" y="71" opacity="1">1.6</text><text x="56" style="color:#666666;cursor:default;font-size:11px;fill:#666666;" text-anchor="end" transform="translate(0,0)" y="14" opacity="1">1.7</text></g></svg>